<?xml version="1.0" standalone="no"?>
<!DOCTYPE svg PUBLIC "-//W3C//DTD SVG 20010904//EN"
 "http://www.w3.org/TR/2001/REC-SVG-20010904/DTD/svg10.dtd">
<svg version="1.0" xmlns="http://www.w3.org/2000/svg"
 width="1059.000000pt" height="1059.000000pt" viewBox="0 0 1059.000000 1059.000000"
 preserveAspectRatio="xMidYMid meet">
<metadata>
Created by potrace 1.11, written by Peter Selinger 2001-2013
</metadata>
<g transform="translate(0.000000,1059.000000) scale(0.100000,-0.100000)"
fill="#000000" stroke="none">
<path d="M4466 10152 c-2 -4 4 -8 14 -8 10 0 16 4 14 8 -3 4 -9 8 -14 8 -5 0
-11 -4 -14 -8z"/>
<path d="M5589 10113 c-13 -16 -12 -17 4 -4 9 7 17 15 17 17 0 8 -8 3 -21 -13z"/>
<path d="M5407 10109 c7 -7 15 -10 18 -7 3 3 -2 9 -12 12 -14 6 -15 5 -6 -5z"/>
<path d="M5461 10107 c-6 -8 -8 -17 -4 -21 10 -9 -90 -2 -106 8 -9 6 -12 5 -8
-1 3 -5 -23 -9 -69 -9 -45 0 -74 4 -74 10 0 7 -3 7 -8 0 -10 -16 -696 -25
-713 -10 -9 8 -10 8 -5 -1 5 -9 -3 -12 -27 -11 -19 1 -39 -2 -45 -6 -6 -3 -14
-2 -17 4 -5 8 -11 7 -21 -1 -10 -8 -14 -8 -14 0 0 7 -8 8 -24 1 -16 -6 -28 -5
-36 3 -10 9 -11 9 -5 -1 6 -12 3 -12 -15 -2 -15 8 -20 8 -16 1 10 -16 -47 -14
-63 2 -8 6 -11 7 -8 1 5 -8 -17 -12 -71 -14 -42 -1 -99 -3 -127 -4 -27 -1 -56
2 -64 8 -12 9 -13 8 -7 -2 7 -11 -4 -13 -53 -10 -33 1 -61 1 -61 -2 0 -3 -35
-5 -78 -5 -42 0 -101 -2 -129 -6 -34 -3 -53 -1 -53 5 0 8 -3 8 -8 0 -4 -6 -45
-11 -95 -12 -48 -1 -92 -4 -97 -7 -5 -3 -11 -1 -15 5 -4 6 -12 7 -18 3 -7 -4
-18 -8 -26 -10 -33 -5 -274 -17 -353 -17 -47 -1 -84 -5 -81 -9 2 -4 -6 -6 -19
-3 -13 2 -43 1 -66 -4 -27 -5 -39 -4 -35 3 4 6 1 7 -8 1 -17 -10 -2 -8 -129
-18 -58 -4 -118 -9 -135 -11 -16 -2 -61 -7 -100 -11 -38 -3 -86 -8 -105 -10
-19 -3 -61 -6 -93 -8 -32 -2 -61 -6 -64 -10 -3 -3 -13 0 -21 7 -10 8 -13 8 -9
1 9 -15 -69 -24 -85 -9 -8 7 -9 6 -4 -2 5 -9 -1 -13 -21 -14 -15 0 -37 -3 -48
-5 -11 -2 -50 -5 -86 -7 -37 -1 -62 -5 -55 -9 6 -4 -5 -9 -24 -10 -60 -3 -65
-4 -78 -11 -6 -5 -12 -6 -12 -3 0 2 -26 -2 -58 -10 -71 -17 -75 -17 -66 -1 4
6 -2 4 -13 -6 -11 -10 -24 -17 -29 -16 -5 1 -16 0 -24 -3 -8 -3 -51 -16 -95
-28 -44 -12 -96 -30 -117 -40 -20 -10 -39 -16 -44 -12 -4 4 -3 1 1 -7 6 -11 4
-13 -8 -8 -9 3 -16 3 -14 -1 3 -11 -39 -62 -47 -57 -3 3 -4 2 -2 -1 2 -3 -16
-39 -40 -80 -24 -41 -44 -79 -44 -85 0 -6 -5 -7 -12 -3 -7 4 -8 3 -4 -4 4 -6
2 -19 -3 -29 -14 -27 -37 -83 -52 -128 -8 -22 -16 -42 -19 -45 -3 -3 -5 -9 -6
-15 -2 -42 -18 -85 -33 -86 -9 0 -11 -3 -5 -5 9 -4 8 -19 -3 -57 -8 -29 -15
-57 -16 -63 -2 -7 -9 -20 -17 -30 -8 -10 -10 -15 -4 -11 7 4 9 -4 6 -24 -2
-16 -8 -29 -12 -29 -5 0 -6 -9 -3 -20 3 -11 1 -20 -3 -20 -5 0 -10 -12 -11
-27 -1 -26 -10 -68 -13 -68 -1 0 -3 -9 -5 -20 -2 -11 -7 -36 -11 -55 -3 -19
-8 -48 -11 -65 -3 -16 -7 -37 -8 -45 -2 -8 -4 -25 -4 -38 -1 -13 -4 -21 -8
-19 -5 3 -8 -11 -7 -31 1 -39 -12 -108 -27 -134 -6 -11 -6 -18 0 -18 6 0 6
-13 -1 -32 -5 -18 -9 -48 -9 -65 1 -18 -2 -33 -7 -33 -5 0 -7 -16 -6 -35 2
-19 0 -35 -4 -35 -6 0 -10 -37 -13 -123 0 -9 -4 -15 -8 -13 -4 3 -5 -9 -3 -26
4 -24 2 -29 -9 -23 -11 7 -12 6 -3 -6 8 -9 9 -30 4 -64 -4 -27 -11 -84 -14
-125 -4 -41 -9 -88 -11 -105 -8 -55 -33 -321 -34 -369 -1 -13 -6 -16 -18 -12
-16 5 -16 5 0 -8 12 -9 17 -22 13 -33 -3 -10 -6 -44 -7 -75 -1 -32 -5 -58 -8
-58 -3 0 -6 -30 -7 -68 -1 -118 -7 -177 -18 -191 -8 -11 -8 -13 2 -7 10 6 11
1 7 -21 -6 -26 -9 -74 -15 -236 -2 -37 -7 -70 -12 -73 -4 -3 -4 -13 2 -23 5
-10 7 -21 4 -24 -3 -3 -8 -72 -10 -155 -7 -186 -8 -204 -17 -219 -4 -6 -3 -14
3 -18 7 -4 7 -12 0 -25 -7 -13 -7 -21 0 -25 6 -4 8 -10 5 -15 -4 -6 -12 -224
-19 -485 -1 -38 -5 -76 -9 -82 -5 -7 -5 -13 0 -13 10 0 10 -51 0 -67 -4 -6 -1
-13 5 -16 10 -3 10 -7 -1 -20 -9 -12 -10 -17 -2 -17 8 0 9 -5 1 -19 -7 -14 -7
-22 0 -26 6 -4 8 -11 4 -16 -3 -5 -6 -108 -6 -229 -1 -145 -4 -217 -11 -213
-6 4 -7 1 -1 -8 5 -8 10 -131 11 -274 1 -143 3 -310 4 -371 1 -60 -1 -115 -4
-121 -4 -7 -3 -14 2 -17 10 -7 8 -66 -3 -84 -3 -6 -2 -13 2 -16 5 -3 9 -38 10
-78 0 -123 13 -381 18 -390 3 -4 0 -8 -6 -8 -6 0 -8 -5 -4 -12 11 -18 12 -48
2 -54 -5 -3 -5 -11 1 -18 6 -6 10 -21 9 -31 -2 -38 13 -260 18 -279 5 -13 3
-16 -6 -11 -10 6 -11 4 -4 -6 13 -21 21 -149 9 -149 -5 0 -4 -4 3 -9 8 -4 13
-19 12 -32 -1 -13 -1 -26 0 -29 1 -3 4 -25 6 -50 2 -24 6 -50 8 -57 3 -7 0
-15 -6 -19 -7 -4 -7 -9 0 -13 11 -6 26 -121 27 -193 0 -20 3 -34 8 -31 6 4 10
-26 10 -80 0 -9 4 -17 9 -17 5 0 8 -6 5 -12 -2 -7 4 -38 15 -68 10 -30 16 -60
13 -68 -2 -7 -1 -11 4 -8 12 8 32 -18 34 -43 0 -11 6 -19 12 -18 5 1 9 -6 8
-16 0 -10 1 -16 4 -13 4 3 15 -4 25 -17 11 -12 28 -32 39 -45 11 -13 17 -28
13 -34 -4 -7 -3 -8 5 -4 12 8 98 -72 93 -87 -1 -5 2 -6 7 -3 5 4 16 0 24 -8 8
-8 43 -33 78 -55 35 -22 70 -45 76 -51 7 -6 15 -10 18 -10 3 0 22 -7 43 -16
91 -39 251 -88 284 -86 16 1 16 -2 1 -33 -9 -19 -21 -31 -26 -28 -6 3 -7 1 -3
-6 4 -6 -2 -24 -13 -40 -12 -16 -21 -32 -21 -36 0 -4 -8 -14 -17 -22 -10 -8
-11 -11 -4 -7 10 5 7 -3 -6 -22 -11 -16 -31 -49 -43 -74 -12 -25 -25 -47 -29
-50 -3 -3 -19 -30 -34 -60 -36 -69 -61 -114 -67 -120 -3 -3 -18 -30 -34 -60
-63 -118 -70 -129 -79 -123 -6 3 -7 1 -3 -5 9 -15 -34 -93 -47 -85 -6 3 -7 1
-3 -5 4 -7 -9 -39 -29 -73 -36 -62 -34 -64 22 -23 17 13 36 24 42 24 6 0 11 4
11 9 0 5 12 16 26 26 18 11 24 13 19 4 -5 -8 7 3 27 24 19 20 38 37 42 37 4 0
17 9 29 20 12 11 27 18 34 16 7 -3 13 2 13 10 0 11 5 14 17 10 10 -4 14 -4 10
0 -10 10 31 36 45 28 6 -4 8 -3 4 4 -3 6 -2 13 4 17 5 3 10 0 11 -7 0 -7 4 -3
9 9 5 13 16 23 23 23 8 0 20 7 27 15 7 8 16 12 21 9 5 -3 12 2 15 10 3 9 10
13 15 10 5 -3 6 -10 3 -16 -4 -7 -2 -8 5 -4 6 4 9 11 6 16 -3 4 2 13 10 20 8
7 15 10 15 6 0 -3 25 10 56 30 32 21 64 34 74 31 12 -3 17 0 14 8 -5 13 50 38
60 28 3 -4 6 -1 6 5 0 7 6 12 14 12 8 0 16 6 19 13 3 9 8 9 21 -2 14 -12 16
-12 11 1 -4 11 21 26 96 58 56 24 108 43 115 43 8 0 14 4 14 8 0 4 10 11 23
14 12 4 65 23 117 42 52 20 109 39 125 44 17 4 64 17 105 29 73 21 87 25 130
34 11 3 23 7 28 9 4 3 25 8 47 11 22 4 47 8 55 11 8 2 31 6 50 9 19 4 53 10
75 15 29 7 42 7 47 -2 6 -9 8 -9 8 0 0 14 26 13 49 -1 9 -6 12 -5 8 1 -7 11
103 5 118 -7 6 -5 16 -5 23 -1 6 4 27 6 44 4 46 -3 189 -13 278 -19 41 -3 95
-6 120 -8 25 -2 74 -5 110 -6 36 -2 71 -8 79 -14 11 -8 13 -8 8 1 -5 8 0 11
13 10 11 -1 20 -4 20 -7 0 -3 39 -6 88 -7 156 -3 197 -6 211 -17 11 -8 13 -8
7 2 -4 6 -3 12 1 12 5 0 15 -6 22 -12 11 -11 12 -10 6 1 -6 10 -4 12 6 6 7 -5
26 -8 42 -7 16 2 35 -2 42 -8 7 -6 16 -7 18 -3 6 10 48 10 64 0 7 -4 14 -4 17
1 3 5 28 6 56 2 28 -4 62 -5 76 -4 13 1 24 0 24 -4 0 -4 25 -6 55 -5 42 2 54
-1 48 -10 -5 -9 -3 -9 8 -1 8 6 30 10 49 8 19 -2 65 -4 103 -5 42 -1 67 -5 67
-13 0 -8 3 -8 8 0 4 6 21 9 37 8 17 -2 91 -6 165 -9 74 -4 139 -10 145 -15 6
-5 16 -5 23 -1 6 4 27 6 44 5 44 -4 332 -17 386 -18 23 0 42 -5 42 -11 0 -5 5
-3 10 5 6 10 10 11 10 3 0 -9 7 -10 25 -3 14 5 25 6 25 2 0 -4 29 -6 65 -5 45
1 63 -2 59 -9 -5 -7 -2 -8 7 -2 13 8 65 8 239 -1 87 -5 334 -13 465 -15 50 -1
95 -6 102 -11 6 -6 14 -6 16 -2 3 5 43 7 89 6 46 -2 109 -3 142 -3 32 0 66 -5
74 -12 9 -7 13 -8 9 -2 -4 7 20 10 81 8 48 -1 142 -3 210 -3 96 -1 122 -4 116
-13 -6 -10 -5 -10 7 -1 24 19 200 13 217 -7 11 -13 11 -13 7 0 -5 14 6 16 72
15 43 0 85 -5 92 -9 9 -6 12 -5 8 1 -8 12 92 11 113 -2 9 -5 11 -4 6 3 -4 7
-3 12 3 12 5 0 13 -5 16 -10 4 -6 12 -7 18 -3 18 11 87 10 80 -1 -4 -5 -1 -6
8 0 19 12 99 11 99 -1 0 -6 3 -5 8 1 8 13 111 13 131 0 9 -6 12 -5 8 2 -5 7
27 11 100 11 60 1 129 3 155 5 34 3 46 0 41 -8 -5 -8 -3 -8 8 0 8 7 42 12 77
12 35 0 66 3 69 6 3 3 12 1 20 -5 8 -8 13 -8 13 -1 0 11 25 10 36 -1 4 -4 12
-3 18 2 15 12 109 17 126 6 9 -6 11 -4 5 4 -5 10 2 12 29 8 20 -3 36 -1 36 4
0 6 8 6 18 0 11 -6 23 -6 28 -1 5 5 41 11 79 14 39 3 90 10 115 16 25 6 56 12
70 15 43 8 71 14 92 21 15 4 19 3 14 -7 -5 -8 -2 -8 6 1 7 9 39 28 70 43 31
16 59 36 62 45 3 9 16 29 28 43 30 33 68 103 68 124 0 10 5 13 12 9 6 -4 8 -3
5 3 -4 6 0 30 8 53 8 24 17 52 20 64 2 12 9 39 15 61 6 22 13 51 16 65 2 14 7
32 11 40 3 8 5 23 4 33 -1 9 2 17 8 17 6 0 8 7 4 16 -3 9 0 20 8 25 11 7 11 9
1 9 -7 0 -10 4 -7 10 7 11 10 25 19 85 4 21 11 44 17 52 9 10 8 13 -2 13 -9 1
-8 5 5 15 11 8 15 15 9 15 -12 0 -5 49 11 69 9 12 8 13 -3 6 -9 -5 -12 -4 -8
2 4 6 9 25 11 44 3 19 7 43 9 54 3 11 8 43 11 70 4 28 9 64 13 80 6 36 11 71
12 103 1 16 5 21 14 16 9 -6 9 -5 0 8 -7 8 -10 17 -8 20 8 8 15 46 20 104 2
28 7 70 10 95 4 24 9 55 10 69 10 87 27 236 28 245 1 5 7 13 12 17 6 5 5 8 -3
8 -7 0 -11 4 -8 9 3 4 9 39 12 77 4 38 12 72 18 76 8 6 7 8 -1 8 -7 0 -10 7
-6 16 6 16 10 51 12 112 1 24 5 31 14 26 9 -6 9 -4 1 7 -8 9 -9 33 -4 74 5 33
11 92 14 130 4 39 9 99 12 135 3 36 11 68 17 72 8 5 8 8 1 8 -6 0 -11 7 -11
15 0 8 3 15 6 15 3 0 7 26 7 58 3 153 8 193 23 187 10 -4 11 -2 3 8 -7 8 -9
44 -5 102 3 50 5 97 6 105 0 8 5 18 11 22 7 5 7 8 -2 8 -7 0 -11 3 -8 8 2 4 7
54 11 112 4 58 9 128 11 155 2 28 4 74 4 103 0 36 4 51 11 46 8 -5 8 -1 0 13
-6 11 -8 22 -6 25 3 2 5 34 6 71 1 42 6 67 13 67 7 0 7 3 1 8 -11 8 -16 72 -5
72 3 0 4 23 2 52 -3 48 -2 51 15 37 17 -13 17 -13 1 7 -10 11 -16 30 -13 42 2
11 5 73 7 136 2 72 7 112 13 109 6 -3 5 -1 -1 6 -7 7 -8 29 -4 57 4 24 3 47
-1 50 -5 2 -5 15 -1 27 5 12 8 29 7 37 0 8 4 18 10 22 7 5 7 8 -1 8 -7 0 -10
27 -8 78 2 42 3 141 4 220 1 98 5 140 12 135 7 -4 8 -1 3 8 -12 19 -14 49 -3
55 4 3 5 11 1 17 -13 21 -14 49 -1 41 7 -5 8 -3 4 5 -12 18 -14 113 -4 134 5
9 5 17 1 17 -10 0 -9 102 1 118 4 7 3 12 -3 12 -5 0 -7 12 -5 28 3 15 5 32 5
37 0 12 -8 358 -12 531 -3 95 0 126 11 140 14 17 13 18 -1 6 -15 -11 -17 -6
-18 55 -1 38 -3 79 -6 92 -2 14 1 31 8 40 9 12 9 13 0 7 -9 -5 -13 -1 -13 11
0 11 6 25 13 32 10 11 10 13 0 7 -10 -5 -13 5 -14 36 0 24 -2 54 -4 68 -1 14
5 34 14 45 15 18 15 19 0 7 -15 -11 -17 -8 -21 30 -2 24 -4 73 -4 110 1 36 -2
64 -7 61 -4 -2 -5 6 -3 19 1 13 0 35 -5 51 -5 18 -4 27 4 27 9 0 9 2 0 8 -11
7 -25 126 -27 225 -1 26 -4 47 -7 47 -4 0 -9 14 -11 30 -3 17 0 30 6 30 7 0 6
4 -2 8 -7 5 -13 35 -15 74 -1 36 -5 64 -9 61 -5 -2 -8 7 -8 21 0 13 -4 36 -10
51 -8 20 -7 24 3 19 9 -6 9 -5 0 7 -7 8 -14 34 -15 57 -2 23 -5 42 -8 42 -11
0 -9 45 3 53 8 6 6 7 -5 3 -13 -4 -18 0 -18 14 0 27 1 21 -20 95 -10 36 -17
65 -15 65 2 0 -3 16 -11 35 -8 20 -12 40 -9 45 4 6 1 10 -4 10 -6 0 -11 6 -11
14 0 8 -9 36 -21 63 -11 26 -21 56 -22 66 -1 9 -4 17 -8 17 -4 0 -10 11 -13
24 -3 13 -22 52 -41 86 -19 34 -35 66 -35 71 0 5 -4 9 -10 9 -5 0 -10 7 -10
15 0 8 -4 15 -10 15 -5 0 -10 5 -10 11 0 22 -117 125 -170 149 -30 14 -58 29
-62 35 -4 5 -8 7 -8 2 0 -4 -17 0 -37 8 -21 9 -39 16 -40 16 -17 -4 -43 1 -40
7 3 4 -7 7 -21 8 -22 0 -114 19 -192 39 -8 2 -25 4 -38 4 -13 1 -21 4 -19 9 3
4 -25 8 -61 10 -36 2 -70 6 -75 9 -6 4 -29 8 -51 9 -23 2 -51 6 -63 9 -12 3
-46 8 -75 11 -29 3 -64 7 -78 9 -14 3 -47 7 -75 10 -72 8 -78 10 -94 19 -9 6
-12 5 -7 -2 4 -7 -1 -9 -16 -6 -13 3 -48 7 -78 10 -30 3 -73 7 -95 10 -48 6
-110 11 -188 15 -32 1 -60 6 -62 10 -3 4 -14 5 -25 2 -11 -3 -28 1 -37 8 -10
8 -14 9 -10 2 5 -9 -7 -10 -45 -7 -29 3 -93 6 -141 8 -53 3 -95 10 -104 18
-10 7 -14 8 -10 1 5 -8 -10 -10 -55 -7 -35 3 -97 6 -138 8 -41 2 -75 5 -75 6
0 7 -47 5 -51 -2 -3 -4 -9 -6 -14 -3 -9 6 -141 13 -307 17 -62 1 -113 7 -113
12 0 4 -6 4 -13 -3 -10 -8 -17 -7 -25 1 -8 8 -12 9 -12 1 0 -7 -12 -10 -27 -7
-16 2 -109 6 -208 8 -99 3 -182 5 -185 6 -3 1 -61 1 -128 0 -99 -1 -122 2
-116 12 6 10 5 10 -7 1 -18 -15 -249 -14 -249 1 0 8 -3 8 -8 1 -9 -14 -75 -13
-84 0 -5 6 -8 6 -8 -1 0 -7 -16 -11 -39 -10 -22 0 -37 5 -34 9 3 5 -3 5 -13
-1 -11 -5 -46 -8 -79 -6 -74 4 -72 4 -115 0 -44 -4 -54 2 -39 20 6 8 9 14 6
14 -2 0 -10 -6 -16 -13z"/>
<path d="M1073 9705 c0 -8 4 -12 9 -9 5 3 6 10 3 15 -9 13 -12 11 -12 -6z"/>
<path d="M767 8629 c7 -7 15 -10 18 -7 3 3 -2 9 -12 12 -14 6 -15 5 -6 -5z"/>
<path d="M680 8390 c-9 -6 -10 -10 -3 -10 6 0 15 5 18 10 8 12 4 12 -15 0z"/>
<path d="M626 8272 c-2 -4 4 -8 14 -8 10 0 16 4 14 8 -3 4 -9 8 -14 8 -5 0
-11 -4 -14 -8z"/>
<path d="M595 7750 c-3 -5 -1 -10 4 -10 6 0 11 5 11 10 0 6 -2 10 -4 10 -3 0
-8 -4 -11 -10z"/>
<path d="M549 7333 c-13 -16 -12 -17 4 -4 9 7 17 15 17 17 0 8 -8 3 -21 -13z"/>
<path d="M10070 7230 c0 -5 5 -10 11 -10 5 0 7 5 4 10 -3 6 -8 10 -11 10 -2 0
-4 -4 -4 -10z"/>
<path d="M540 7196 c0 -2 8 -10 18 -17 15 -13 16 -12 3 4 -13 16 -21 21 -21
13z"/>
<path d="M10186 6788 c3 -5 10 -6 15 -3 13 9 11 12 -6 12 -8 0 -12 -4 -9 -9z"/>
<path d="M10186 6628 c3 -5 10 -6 15 -3 13 9 11 12 -6 12 -8 0 -12 -4 -9 -9z"/>
<path d="M10120 5870 c-9 -6 -10 -10 -3 -10 6 0 15 5 18 10 8 12 4 12 -15 0z"/>
<path d="M430 5190 c0 -5 5 -10 11 -10 5 0 7 5 4 10 -3 6 -8 10 -11 10 -2 0
-4 -4 -4 -10z"/>
<path d="M10113 5155 c0 -8 4 -12 9 -9 5 3 6 10 3 15 -9 13 -12 11 -12 -6z"/>
<path d="M9996 4143 c-6 -14 -5 -15 5 -6 7 7 10 15 7 18 -3 3 -9 -2 -12 -12z"/>
<path d="M475 3719 c-4 -6 -5 -12 -2 -15 2 -3 7 2 10 11 7 17 1 20 -8 4z"/>
<path d="M9910 3630 c0 -5 5 -10 11 -10 5 0 7 5 4 10 -3 6 -8 10 -11 10 -2 0
-4 -4 -4 -10z"/>
<path d="M9916 3332 c-3 -5 1 -9 9 -9 8 0 12 4 9 9 -3 4 -7 8 -9 8 -2 0 -6 -4
-9 -8z"/>
<path d="M9867 3309 c7 -7 15 -10 18 -7 3 3 -2 9 -12 12 -14 6 -15 5 -6 -5z"/>
<path d="M9750 2406 c0 -2 8 -10 18 -17 15 -13 16 -12 3 4 -13 16 -21 21 -21
13z"/>
<path d="M550 2351 c0 -6 4 -13 10 -16 6 -3 7 1 4 9 -7 18 -14 21 -14 7z"/>
<path d="M639 2163 c-13 -16 -12 -17 4 -4 9 7 17 15 17 17 0 8 -8 3 -21 -13z"/>
<path d="M1299 1778 c-5 -18 -6 -38 -1 -34 7 8 12 36 6 36 -2 0 -4 -1 -5 -2z"/>
<path d="M1370 1749 c0 -5 5 -7 10 -4 6 3 10 8 10 11 0 2 -4 4 -10 4 -5 0 -10
-5 -10 -11z"/>
<path d="M1335 1730 c-3 -5 -1 -10 4 -10 6 0 11 5 11 10 0 6 -2 10 -4 10 -3 0
-8 -4 -11 -10z"/>
<path d="M1430 1730 c0 -5 5 -10 11 -10 5 0 7 5 4 10 -3 6 -8 10 -11 10 -2 0
-4 -4 -4 -10z"/>
<path d="M1275 1670 c-3 -5 -1 -10 4 -10 6 0 11 5 11 10 0 6 -2 10 -4 10 -3 0
-8 -4 -11 -10z"/>
<path d="M1330 1650 c0 -5 5 -10 11 -10 5 0 7 5 4 10 -3 6 -8 10 -11 10 -2 0
-4 -4 -4 -10z"/>
<path d="M1375 1650 c3 -5 8 -10 11 -10 2 0 4 5 4 10 0 6 -5 10 -11 10 -5 0
-7 -4 -4 -10z"/>
<path d="M2833 1515 c0 -8 4 -12 9 -9 5 3 6 10 3 15 -9 13 -12 11 -12 -6z"/>
<path d="M1295 1490 c3 -5 8 -10 11 -10 2 0 4 5 4 10 0 6 -5 10 -11 10 -5 0
-7 -4 -4 -10z"/>
<path d="M4235 1481 c-3 -5 -2 -12 3 -15 5 -3 9 1 9 9 0 17 -3 19 -12 6z"/>
<path d="M1190 1469 c0 -5 5 -7 10 -4 6 3 10 8 10 11 0 2 -4 4 -10 4 -5 0 -10
-5 -10 -11z"/>
<path d="M2150 1470 c0 -5 5 -10 11 -10 5 0 7 5 4 10 -3 6 -8 10 -11 10 -2 0
-4 -4 -4 -10z"/>
<path d="M4635 1471 c-3 -5 -2 -12 3 -15 5 -3 9 1 9 9 0 17 -3 19 -12 6z"/>
<path d="M5676 1472 c-3 -5 1 -9 9 -9 8 0 12 4 9 9 -3 4 -7 8 -9 8 -2 0 -6 -4
-9 -8z"/>
<path d="M5025 1430 c-3 -6 1 -7 9 -4 18 7 21 14 7 14 -6 0 -13 -4 -16 -10z"/>
<path d="M8080 1430 c-9 -6 -10 -10 -3 -10 6 0 15 5 18 10 8 12 4 12 -15 0z"/>
<path d="M1256 1408 c3 -5 10 -6 15 -3 13 9 11 12 -6 12 -8 0 -12 -4 -9 -9z"/>
<path d="M1199 1383 c-13 -16 -12 -17 4 -4 9 7 17 15 17 17 0 8 -8 3 -21 -13z"/>
<path d="M8416 1383 c-6 -14 -5 -15 5 -6 7 7 10 15 7 18 -3 3 -9 -2 -12 -12z"/>
<path d="M1150 1366 c0 -2 8 -10 18 -17 15 -13 16 -12 3 4 -13 16 -21 21 -21
13z"/>
<path d="M1140 1276 c0 -2 8 -10 18 -17 15 -13 16 -12 3 4 -13 16 -21 21 -21
13z"/>
<path d="M1126 1212 c-3 -5 1 -9 9 -9 8 0 12 4 9 9 -3 4 -7 8 -9 8 -2 0 -6 -4
-9 -8z"/>
<path d="M1453 1135 c0 -8 4 -12 9 -9 5 3 6 10 3 15 -9 13 -12 11 -12 -6z"/>
<path d="M1507 1049 c7 -7 15 -10 18 -7 3 3 -2 9 -12 12 -14 6 -15 5 -6 -5z"/>
</g>
</svg>
