<?xml version="1.0" encoding="utf-8"?>
<!-- Generator: Adobe Illustrator 19.0.0, SVG Export Plug-In . SVG Version: 6.00 Build 0)  -->
<svg version="1.1" xmlns="http://www.w3.org/2000/svg" xmlns:xlink="http://www.w3.org/1999/xlink" x="0px" y="0px"
	 viewBox="0 0 1000 1000" style="enable-background:new 0 0 1000 1000;" xml:space="preserve">
<style type="text/css">
	.st0{fill:#0071BC;}
	.st1{fill:#29ABE2;}
	.st2{display:none;}
	.st3{display:inline;}
</style>
<g id="Layer_1">
	<g id="XMLID_80_">
		<g id="XMLID_17_">
			<g id="XMLID_19_">
				<path id="XMLID_82_" class="st0" d="M277.4,551.2c28.7,0,54.6,12.5,72.4,32.4l89.9-70.7c-6.9-10.6-10.9-23.2-10.9-36.8
					c0-5.9,0.8-11.7,2.2-17.2l-245.7-89.2c-6.9,15.3-18.4,28.1-32.6,36.8l82,154.7C247.6,554.8,262.1,551.2,277.4,551.2z"/>
				<g id="XMLID_46_">
					<path class="st0" d="M277.4,552.7c27.3,0.2,52.9,11.8,71.3,32c0.6,0.6,1.5,0.5,2.1,0c26.2-20.6,52.4-41.2,78.6-61.9
						c3.7-2.9,7.5-5.9,11.2-8.8c0.5-0.4,0.6-1.3,0.2-1.8c-10.1-15.9-13.1-34.6-8.5-52.9c0.2-0.8-0.3-1.6-1-1.8
						c-27.7-10.1-55.5-20.1-83.2-30.2c-44.1-16-88.3-32-132.4-48.1c-10.1-3.6-20.1-7.3-30.2-10.9c-0.6-0.2-1.4,0.1-1.7,0.7
						c-7,15.1-18,27.5-32.1,36.2c-0.7,0.4-0.9,1.3-0.5,2.1c9.2,17.4,18.4,34.8,27.7,52.2c14.7,27.8,29.4,55.5,44.1,83.3
						c3.4,6.4,6.8,12.8,10.2,19.2c0.4,0.8,1.3,0.9,2.1,0.5C248.6,556.1,262.8,552.9,277.4,552.7c1.9,0,1.9-3,0-3
						c-15.2,0.1-29.9,3.6-43.6,10.2c0.7,0.2,1.4,0.4,2.1,0.5c-9.2-17.4-18.4-34.8-27.7-52.2c-14.7-27.8-29.4-55.5-44.1-83.3
						c-3.4-6.4-6.8-12.8-10.2-19.2c-0.2,0.7-0.4,1.4-0.5,2.1c14.5-9,26-21.8,33.2-37.3c-0.6,0.2-1.1,0.5-1.7,0.7
						c27.7,10.1,55.5,20.1,83.2,30.2c44.1,16,88.3,32,132.4,48.1c10.1,3.6,20.1,7.3,30.2,10.9c-0.3-0.6-0.7-1.2-1-1.8
						c-4.7,19-1.6,38.6,8.9,55.2c0.1-0.6,0.2-1.2,0.2-1.8c-26.2,20.6-52.4,41.2-78.6,61.9c-3.7,2.9-7.5,5.9-11.2,8.8
						c0.7,0,1.4,0,2.1,0c-18.9-20.8-45.4-32.6-73.4-32.9C275.5,549.7,275.5,552.7,277.4,552.7z"/>
				</g>
			</g>
			<g id="XMLID_20_">
				<path id="XMLID_75_" class="st0" d="M496.4,408.5c24.5,0,46,13.1,57.9,32.7l129.5-62.7c-4.5-10.2-7.5-21.5-8.5-32.5H192
					c-0.5,4-1.3,8.3-2.5,12.4l245.7,89.1C446,424.6,469.4,408.5,496.4,408.5z"/>
				<g id="XMLID_41_">
					<path class="st0" d="M496.4,410c23.2,0.3,44.4,12.2,56.6,31.9c0.5,0.7,1.3,0.9,2.1,0.5c37.8-18.4,75.6-36.8,113.4-55.1
						c5.3-2.6,10.7-5.2,16-7.8c0.8-0.4,0.8-1.4,0.5-2.1c-4.4-10.2-7.2-20.9-8.3-32c-0.1-0.8-0.6-1.5-1.5-1.5c-16.1,0-32.2,0-48.4,0
						c-38.4,0-76.7,0-115.1,0c-46.5,0-93.1,0-139.6,0c-40.2,0-80.5,0-120.7,0c-13.3,0-26.6,0-39.9,0c-6.1,0-12.7-0.7-18.8,0
						c-0.3,0-0.6,0-0.8,0c-0.9,0-1.4,0.7-1.5,1.5c-0.5,4.2-1.4,8.2-2.4,12.3c-0.2,0.8,0.3,1.6,1,1.8c27.7,10.1,55.5,20.1,83.2,30.2
						c44.1,16,88.3,32,132.4,48.1c10.1,3.6,20.1,7.3,30.2,10.9c0.6,0.2,1.4-0.1,1.7-0.7C447.7,425,470.7,410.3,496.4,410
						c1.9,0,1.9-3,0-3c-26.7,0.3-50.9,15.6-62.5,39.6c0.6-0.2,1.1-0.5,1.7-0.7c-27.7-10.1-55.5-20.1-83.2-30.2
						c-44.1-16-88.3-32-132.4-48.1c-10.1-3.6-20.1-7.3-30.2-10.9c0.3,0.6,0.7,1.2,1,1.8c1.2-4.3,2-8.6,2.6-13.1
						c-0.5,0.5-1,1-1.5,1.5c16.1,0,32.2,0,48.4,0c38.4,0,76.7,0,115.1,0c46.5,0,93.1,0,139.6,0c40.2,0,80.5,0,120.7,0
						c13.3,0,26.6,0,39.9,0c4.1,0,8.2,0,12.3,0c1.7,0,4.9,0.6,6.5,0c0.2-0.1,0.6,0,0.8,0c-0.5-0.5-1-1-1.5-1.5
						c1.2,11.6,4.1,22.8,8.7,33.5c0.2-0.7,0.4-1.4,0.5-2.1c-37.8,18.4-75.6,36.8-113.4,55.1c-5.3,2.6-10.7,5.2-16,7.8
						c0.7,0.2,1.4,0.4,2.1,0.5c-12.8-20.6-34.9-33.2-59.2-33.4C494.5,407,494.5,410,496.4,410z"/>
				</g>
			</g>
			<g id="XMLID_21_">
				<path id="XMLID_68_" class="st0" d="M689.5,389.2l-129.7,63.1c2.8,7.4,4.4,15.5,4.4,23.9c0,17.4-6.6,33.3-17.4,45.3l22.9,24.8
					c12-10.7,27.7-17.1,44.9-17.1c13,0,25.1,3.7,35.4,10.1L723.2,424C709.4,415.2,697.8,403.3,689.5,389.2z"/>
				<g id="XMLID_42_">
					<path class="st0" d="M688.7,387.9c-37.8,18.4-75.7,36.8-113.5,55.2c-5.4,2.6-10.8,5.3-16.2,7.9c-0.6,0.3-0.9,1.1-0.7,1.7
						c8.5,23.4,3.8,49.1-12.7,67.7c-0.6,0.6-0.6,1.5,0,2.1c7.6,8.3,15.3,16.5,22.9,24.8c0.6,0.6,1.5,0.5,2.1,0
						c22-19.2,53.6-21.9,78.6-6.9c0.7,0.4,1.6,0.1,2.1-0.5c21.4-33.6,42.8-67.3,64.2-100.9c3-4.7,6-9.5,9-14.2
						c0.4-0.7,0.1-1.6-0.5-2.1c-13.6-8.8-24.8-20.4-33.2-34.3c-1-1.6-3.6-0.1-2.6,1.5c8.6,14.3,20.3,26.3,34.3,35.4
						c-0.2-0.7-0.4-1.4-0.5-2.1c-21.4,33.6-42.8,67.3-64.2,100.9c-3,4.7-6,9.5-9,14.2c0.7-0.2,1.4-0.4,2.1-0.5
						c-26.2-15.7-59.2-12.7-82.2,7.3c0.7,0,1.4,0,2.1,0c-7.6-8.3-15.3-16.5-22.9-24.8c0,0.7,0,1.4,0,2.1
						c17.1-19.4,22.3-46.3,13.4-70.6c-0.2,0.6-0.5,1.1-0.7,1.7c37.8-18.4,75.7-36.8,113.5-55.2c5.4-2.6,10.8-5.3,16.2-7.9
						C691.9,389.6,690.4,387,688.7,387.9z"/>
				</g>
			</g>
			<g id="XMLID_37_">
				<path id="XMLID_61_" class="st0" d="M537.6,529.8c-11.4,8.8-25.7,14-41.2,14c-19.3,0-36.8-8.2-49.1-21.2l-89.9,70.7
					c8.3,12,14,26,16.2,41.1l174.5-24.6c-0.8-4.2-1.3-8.6-1.3-13.1c0-15.6,5.3-30,14.3-41.5L537.6,529.8z"/>
				<g id="XMLID_43_">
					<path class="st0" d="M536.9,528.5c-27.1,20.4-64.9,17.5-88.5-6.9c-0.6-0.6-1.5-0.5-2.1,0c-26.2,20.6-52.4,41.2-78.6,61.9
						c-3.7,2.9-7.5,5.9-11.2,8.8c-0.5,0.4-0.6,1.3-0.2,1.8c8.4,12.3,13.7,26,16,40.7c0.1,0.9,1.1,1.1,1.8,1
						c19.7-2.8,39.4-5.5,59.1-8.3c31.2-4.4,62.5-8.8,93.7-13.2c7.3-1,14.5-2,21.8-3.1c0.8-0.1,1.2-1.1,1-1.8
						c-3.5-19,1.1-38.1,12.8-53.5c0.4-0.5,0.2-1.4-0.2-1.8c-7.8-8.5-15.7-17-23.5-25.4c-1.3-1.4-3.4,0.7-2.1,2.1
						c7.8,8.5,15.7,17,23.5,25.4c-0.1-0.6-0.2-1.2-0.2-1.8c-12.2,16-16.8,36-13.1,55.8c0.3-0.6,0.7-1.2,1-1.8
						c-19.7,2.8-39.4,5.5-59.1,8.3c-31.2,4.4-62.5,8.8-93.7,13.2c-7.3,1-14.5,2-21.8,3.1c0.6,0.3,1.2,0.7,1.8,1
						c-2.3-14.9-7.8-28.9-16.3-41.5c-0.1,0.6-0.2,1.2-0.2,1.8c26.2-20.6,52.4-41.2,78.6-61.9c3.7-2.9,7.5-5.9,11.2-8.8
						c-0.7,0-1.4,0-2.1,0c24.5,25.3,63.9,28.6,92.1,7.4C539.9,529.9,538.4,527.3,536.9,528.5z"/>
				</g>
			</g>
			<g id="XMLID_38_">
				<path id="XMLID_52_" class="st0" d="M872.4,383.5c-17.4,33.8-52.5,57-93.1,57c-16.3,0-31.7-3.7-45.5-10.4l-74.1,116.5
					c13.7,12.4,22.4,30.3,22.4,50.2c0,15.8-5.5,30.3-14.6,41.8c22.1-5.4,44.6-11.8,67.6-19.4c-19.3,75.7-28.7,80.7-70.7,157.8
					c114.5-84.7,187-147.9,295.4-278.9C934.8,454.2,905.3,416.2,872.4,383.5z"/>
				<g id="XMLID_45_">
					<path class="st0" d="M871.1,382.8c-11.6,22.2-30.7,39.9-54.1,49.1c-26.6,10.5-56.6,9.1-82.4-3.1c-0.8-0.4-1.6-0.2-2.1,0.5
						c-21.6,34-43.2,67.9-64.8,101.9c-3.1,4.9-6.2,9.7-9.3,14.6c-0.3,0.5-0.2,1.4,0.2,1.8c25.6,23.6,28.9,62.6,7.6,90.2
						c-0.9,1.1,0.5,2.5,1.7,2.2c22.8-5.6,45.3-12.1,67.6-19.4c-0.6-0.6-1.2-1.2-1.8-1.8c-5.6,22-11.7,44-20.7,64.9
						c-7.5,17.5-17.1,34.1-26.5,50.6c-7.9,13.9-15.8,27.8-23.4,41.9c-0.7,1.2,0.8,3,2.1,2.1c40.7-30.1,80.8-60.9,119-94.2
						c38.5-33.5,74.7-69.3,109.1-106.9c23.2-25.4,45.6-51.5,67.6-78c0.4-0.5,0.6-1.2,0.2-1.8c-24.2-41.9-53.5-80.7-87.8-114.8
						c-1.4-1.4-3.5,0.8-2.1,2.1c34.1,34,63.3,72.5,87.3,114.2c0.1-0.6,0.2-1.2,0.2-1.8c-36.5,44.1-74.3,87.1-114.9,127.4
						c-34.6,34.4-71.2,66.5-109.2,96.9c-23.3,18.6-47,36.5-71,54.3c0.7,0.7,1.4,1.4,2.1,2.1c20.8-38.1,45.1-74.9,58.9-116.4
						c4.6-13.7,8.4-27.7,11.9-41.7c0.3-1.1-0.7-2.2-1.8-1.8c-22.3,7.3-44.8,13.9-67.6,19.4c0.6,0.7,1.1,1.5,1.7,2.2
						c22.1-28.6,18.5-69.4-8-93.9c0.1,0.6,0.2,1.2,0.2,1.8c21.6-34,43.2-67.9,64.8-101.9c3.1-4.9,6.2-9.7,9.3-14.6
						c-0.7,0.2-1.4,0.4-2.1,0.5c26.5,12.6,57.3,14.1,84.7,3.4c24.1-9.5,43.9-27.6,55.9-50.5C874.6,382.6,872,381.1,871.1,382.8z"/>
				</g>
			</g>
			<g id="XMLID_40_">
				<path id="XMLID_93_" class="st0" d="M551.7,621.8l-177.1,24.9c0,0.6,0,1.1,0,1.7c0,1.8-0.1,3.6-0.2,5.4
					c71.7,8,138.1,9.1,205.2,0.9C567.1,647.1,557.2,635.5,551.7,621.8z"/>
				<g id="XMLID_69_">
					<path class="st0" d="M551.3,620.3c-20,2.8-39.9,5.6-59.9,8.4c-31.8,4.5-63.6,9-95.4,13.4c-7.3,1-14.5,2-21.8,3.1
						c-0.6,0.1-1.1,0.9-1.1,1.4c0.1,2.4,0,4.7-0.1,7.1c0,0.9,0.7,1.4,1.5,1.5c68.2,7.6,137,9.2,205.2,0.9c1.4-0.2,2.1-1.9,0.8-2.8
						c-12.3-7.6-21.8-18.6-27.3-32c-0.7-1.8-3.6-1-2.9,0.8c5.9,14.1,15.7,25.7,28.7,33.8c0.3-0.9,0.5-1.9,0.8-2.8
						c-68.2,8.3-137,6.7-205.2-0.9c0.5,0.5,1,1,1.5,1.5c0.1-2.4,0.2-4.7,0.1-7.1c-0.4,0.5-0.7,1-1.1,1.4c20-2.8,39.9-5.6,59.9-8.4
						c31.8-4.5,63.6-9,95.4-13.4c7.3-1,14.5-2,21.8-3.1C554,622.9,553.2,620.1,551.3,620.3z"/>
				</g>
			</g>
			<g id="XMLID_53_">
				<path id="XMLID_113_" class="st0" d="M192.5,333h482.4c0.6-24,9.7-46.6,24.3-64.1c-142.8-58.9-307.1-58.3-448.5-14.2
					c-25.2,7.9-51,18.3-74.8,31.5C185.8,299.3,191.9,316,192.5,333z"/>
				<g id="XMLID_94_">
					<path class="st0" d="M192.5,334.7c16,0,32.1,0,48.1,0c38.5,0,76.9,0,115.4,0c46.4,0,92.7,0,139.1,0c40.1,0,80.2,0,120.3,0
						c13.3,0,26.6,0,39.9,0c6.1,0,12.7,0.7,18.8,0c0.3,0,0.6,0,0.8,0c0.8,0,1.5-0.7,1.5-1.5c0.8-23.2,9.1-45.2,23.8-63.2
						c0.8-0.9,0.4-2.1-0.7-2.5c-65.1-26.7-134.8-41.4-205-45c-69.3-3.6-139.2,3.3-206.6,20.2c-39.1,9.8-77.5,22.7-112.9,42.3
						c-0.7,0.4-1,1.4-0.5,2.1c10,13.5,15.7,29.3,16.4,46.2c0.1,1.9,3.1,1.9,3,0c-0.7-17.3-6.5-33.7-16.8-47.7
						c-0.2,0.7-0.4,1.4-0.5,2.1c31.7-17.5,65.7-29.6,100.6-39c33.2-8.9,67.1-15.4,101.2-19.3c69.2-8,139.8-5.9,208.2,7.6
						c38.4,7.6,76,18.8,112.2,33.6c-0.2-0.8-0.4-1.7-0.7-2.5c-15.3,18.6-23.9,41.2-24.7,65.3c0.5-0.5,1-1,1.5-1.5
						c-16,0-32.1,0-48.1,0c-38.5,0-76.9,0-115.4,0c-46.4,0-92.7,0-139.1,0c-40.1,0-80.2,0-120.3,0c-13.3,0-26.6,0-39.9,0
						c-6.1,0-12.7-0.7-18.8,0c-0.3,0-0.6,0-0.8,0C190.6,331.7,190.6,334.7,192.5,334.7z"/>
				</g>
			</g>
			<g id="XMLID_54_">
				<path id="XMLID_154_" class="st0" d="M224,567.3l-82.3-155.2c-9.7,4-20.4,6.3-31.5,6.3c-12.9,0-25.1-3-36-8.3
					c-0.2,1.4-0.5,2.8-0.7,4.3c-8.6,61.9,29.1,123.3,80.5,158.8c12.9,8.9,26.4,17.5,40.2,25.5C201.6,586.1,211.8,575.4,224,567.3z"
					/>
				<g id="XMLID_121_">
					<path class="st0" d="M225.3,566.6c-9.3-17.5-18.5-35-27.8-52.5c-14.8-27.9-29.6-55.7-44.3-83.6c-3.4-6.4-6.8-12.8-10.2-19.2
						c-0.3-0.5-1.1-0.9-1.7-0.7c-21.5,8.7-45.4,8.1-66.4-1.9c-0.8-0.4-2-0.1-2.2,0.9C62,470.3,96.2,530.2,142.8,566.8
						c15.8,12.4,33.2,23.1,50.6,33.1c0.7,0.4,1.6,0.2,2.1-0.5c7.5-12.3,17.4-22.7,29.3-30.7c1.6-1.1,0.1-3.7-1.5-2.6
						c-12.4,8.3-22.6,19.1-30.4,31.8c0.7-0.2,1.4-0.4,2.1-0.5c-28-16.2-55.6-33.9-77.2-58.4C98,516.7,83.1,490,76.8,461
						c-3.6-16.6-4.2-33.8-1.2-50.5c-0.7,0.3-1.5,0.6-2.2,0.9c21.7,10.3,46.4,11.2,68.7,2.2c-0.6-0.2-1.1-0.5-1.7-0.7
						c9.3,17.5,18.5,35,27.8,52.5c14.8,27.9,29.6,55.7,44.3,83.6c3.4,6.4,6.8,12.8,10.2,19.2C223.6,569.8,226.2,568.3,225.3,566.6z"
						/>
				</g>
			</g>
		</g>
		<g id="XMLID_10_">
			<circle id="XMLID_1_" class="st1" cx="110.1" cy="335.9" r="70.1"/>
			<circle id="XMLID_3_" class="st1" cx="781.8" cy="333.5" r="92.3"/>
			<circle id="XMLID_5_" class="st1" cx="277.4" cy="648.4" r="84.9"/>
			<circle id="XMLID_6_" class="st1" cx="496.4" cy="476.2" r="55.4"/>
			<circle id="XMLID_7_" class="st1" cx="612.1" cy="596.7" r="55.4"/>
		</g>
	</g>
</g>
<g id="Layer_2" class="st2">
	<g id="XMLID_67_" class="st3">
		<g id="XMLID_135_">
			<g id="XMLID_136_">
				<path id="XMLID_152_" class="st0" d="M426.5,434.4c14.2-23.8,40.2-39.8,69.8-39.8c26.7,0,50.4,12.9,65.2,32.9L672,373.7
					c-2.4-6.6-4.2-13.7-5.4-20.7H202.5L426.5,434.4z"/>
				<g id="XMLID_147_">
					<path id="XMLID_27_" class="st0" d="M427.8,435.3c13.4-22.1,36.6-37,62.5-38.9c27.2-2,53.5,10.2,70,31.9
						c0.5,0.7,1.2,0.9,2.1,0.5c32.2-15.7,64.4-31.3,96.6-47c4.6-2.2,9.3-4.5,13.9-6.7c0.6-0.3,0.9-1.1,0.7-1.7
						c-2.4-6.7-4.2-13.6-5.4-20.6c-0.1-0.6-0.8-1.1-1.4-1.1c-15.4,0-30.7,0-46.1,0c-36.9,0-73.8,0-110.8,0c-44.7,0-89.4,0-134,0
						c-38.6,0-77.3,0-115.9,0c-12.8,0-25.5,0-38.3,0c-5.9,0-12.4-0.8-18.2,0c-0.3,0-0.5,0-0.8,0c-1.8,0-1.9,2.4-0.4,2.9
						c25.3,9.2,50.7,18.4,76,27.6c40,14.5,80.1,29.1,120.1,43.6c9.3,3.4,18.6,6.8,27.9,10.1c1.8,0.7,2.6-2.2,0.8-2.9
						c-25.3-9.2-50.7-18.4-76-27.6c-40-14.5-80.1-29.1-120.1-43.6c-9.3-3.4-18.6-6.8-27.9-10.1c-0.1,1-0.3,2-0.4,2.9
						c15.4,0,30.7,0,46.1,0c36.9,0,73.8,0,110.8,0c44.7,0,89.4,0,134,0c38.6,0,77.3,0,115.9,0c12.8,0,25.5,0,38.3,0c4,0,8,0,11.9,0
						c1.7,0,4.7,0.6,6.3,0c0.2-0.1,0.6,0,0.8,0c-0.5-0.4-1-0.7-1.4-1.1c1.2,7,3,13.9,5.4,20.6c0.2-0.6,0.5-1.1,0.7-1.7
						c-32.2,15.7-64.4,31.3-96.6,47c-4.6,2.2-9.3,4.5-13.9,6.7c0.7,0.2,1.4,0.4,2.1,0.5c-17-22.5-44.2-35.5-72.5-33.4
						c-26.9,2-51.1,17.4-65.1,40.4C424.2,435.4,426.8,436.9,427.8,435.3z"/>
				</g>
			</g>
			<g id="XMLID_137_">
				<path id="XMLID_145_" class="st0" d="M685.8,400.4l-111.1,54c1.9,6.8,2.9,14,2.9,21.4c0,18.1-6,34.9-16,48.4l7.5,8.1
					c13.3-9.6,29.6-15.2,47.3-15.2c12.5,0,24.4,2.9,35,7.9l61.4-96.5C702.2,420.6,693.1,411.2,685.8,400.4z"/>
				<g id="XMLID_131_">
					<path id="XMLID_26_" class="st0" d="M685,399.1c-32.4,15.8-64.9,31.5-97.3,47.3c-4.6,2.2-9.2,4.5-13.8,6.7
						c-0.6,0.3-0.8,1.1-0.7,1.7c6.3,23.9,1.5,48.7-13,68.6c-0.4,0.5-0.2,1.4,0.2,1.8c2.5,2.7,5,5.4,7.5,8.1c0.4,0.5,1.3,0.6,1.8,0.2
						c23.7-16.7,54.4-19.6,80.8-7.3c0.8,0.4,1.6,0.2,2.1-0.5c17.9-28.2,35.8-56.3,53.7-84.5c2.6-4,5.1-8,7.7-12.1
						c0.5-0.7,0.1-1.6-0.5-2.1c-10.2-7.8-19-17-26.3-27.5c-1.1-1.6-3.7-0.1-2.6,1.5c7.6,11,16.8,20.5,27.4,28.6
						c-0.2-0.7-0.4-1.4-0.5-2.1c-17.9,28.2-35.8,56.3-53.7,84.5c-2.6,4-5.1,8-7.7,12.1c0.7-0.2,1.4-0.4,2.1-0.5
						c-27.3-12.8-59.1-10.1-83.8,7.3c0.6,0.1,1.2,0.2,1.8,0.2c-2.5-2.7-5-5.4-7.5-8.1c0.1,0.6,0.2,1.2,0.2,1.8
						c15-20.5,19.7-46.4,13.3-70.9c-0.2,0.6-0.5,1.1-0.7,1.7c32.4-15.8,64.9-31.5,97.3-47.3c4.6-2.2,9.2-4.5,13.8-6.7
						C688.3,400.9,686.7,398.3,685,399.1z"/>
				</g>
			</g>
			<g id="XMLID_138_">
				<path id="XMLID_129_" class="st0" d="M535.1,598.2c0-16.3,4.8-31.5,13.2-44.2l-8.7-9.5c-12.5,7.9-27.3,12.5-43.1,12.5
					c-20.4,0-39.1-7.6-53.4-20.1l-73.1,57.5c5.7,9.7,10,20.4,12.6,31.7l152.9-21.5C535.2,602.5,535.1,600.4,535.1,598.2z"/>
				<g id="XMLID_124_">
					<path id="XMLID_13_" class="st0" d="M536.6,598.2c0.2-15.6,4.6-30.3,12.9-43.5c0.4-0.6,0.2-1.3-0.2-1.8
						c-2.9-3.2-5.8-6.3-8.7-9.5c-0.4-0.5-1.3-0.6-1.8-0.2c-29.9,18.4-68.1,15.4-94.7-7.4c-0.7-0.6-1.4-0.5-2.1,0
						c-21.3,16.8-42.6,33.5-63.9,50.3c-3.1,2.4-6.1,4.8-9.2,7.2c-0.5,0.4-0.5,1.3-0.2,1.8c5.7,9.8,9.8,20.3,12.4,31.4
						c0.2,0.9,1.1,1.2,1.8,1c44.7-6.3,89.3-12.6,134-18.9c6.3-0.9,12.6-1.8,18.9-2.7c0.6-0.1,1.1-0.9,1.1-1.4
						C536.7,602.5,536.6,600.3,536.6,598.2c0-1.9-3-1.9-3,0c0,2.1,0.1,4.3,0.3,6.4c0.4-0.5,0.7-1,1.1-1.4
						c-44.7,6.3-89.3,12.6-134,18.9c-6.3,0.9-12.6,1.8-18.9,2.7c0.6,0.3,1.2,0.7,1.8,1c-2.7-11.3-6.9-22-12.7-32.1
						c-0.1,0.6-0.2,1.2-0.2,1.8c21.3-16.8,42.6-33.5,63.9-50.3c3.1-2.4,6.1-4.8,9.2-7.2c-0.7,0-1.4,0-2.1,0
						c27.6,23.7,67.3,27,98.3,7.9c-0.6-0.1-1.2-0.2-1.8-0.2c2.9,3.2,5.8,6.3,8.7,9.5c-0.1-0.6-0.2-1.2-0.2-1.8
						c-8.6,13.5-13.2,28.9-13.4,45C533.6,600.1,536.6,600.1,536.6,598.2z"/>
				</g>
			</g>
			<g id="XMLID_139_">
				<path id="XMLID_122_" class="st0" d="M274.1,539.5c30,0,57.2,12,77.2,31.3l73.1-57.5c-5.9-11.2-9.2-24-9.2-37.5
					c0-4.5,0.4-8.9,1.1-13.1l-227.9-82.7c-6.9,12.4-16.4,23.1-27.8,31.4l72.2,136.2C245.6,542.4,259.5,539.5,274.1,539.5z"/>
				<g id="XMLID_117_">
					<path id="XMLID_12_" class="st0" d="M274.1,541c28.5,0.2,55.6,11.2,76.2,30.9c0.6,0.6,1.5,0.5,2.1,0
						c21.3-16.8,42.6-33.5,63.9-50.3c3.1-2.4,6.1-4.8,9.2-7.2c0.5-0.4,0.5-1.3,0.2-1.8c-7.8-15.4-10.6-32.4-8-49.5
						c0.1-0.9-0.2-1.5-1-1.8c-25.7-9.3-51.3-18.6-77-28c-40.9-14.9-81.8-29.7-122.7-44.6c-9.4-3.4-18.8-6.8-28.2-10.2
						c-0.6-0.2-1.4,0.1-1.7,0.7c-6.9,12.1-16.1,22.5-27.3,30.8c-0.7,0.5-1,1.3-0.5,2.1c21.1,39.8,42.2,79.6,63.3,119.3
						c3,5.6,6,11.2,8.9,16.9c0.3,0.5,1.1,0.9,1.7,0.7C246.3,543.8,260,541.1,274.1,541c1.9,0,1.9-3,0-3c-14.3,0.1-28.3,2.8-41.7,8
						c0.6,0.2,1.1,0.5,1.7,0.7c-21.1-39.8-42.2-79.6-63.3-119.3c-3-5.6-6-11.2-8.9-16.9c-0.2,0.7-0.4,1.4-0.5,2.1
						c11.6-8.6,21.2-19.3,28.3-31.9c-0.6,0.2-1.1,0.5-1.7,0.7c25.7,9.3,51.3,18.6,77,28c40.9,14.9,81.8,29.7,122.7,44.6
						c9.4,3.4,18.8,6.8,28.2,10.2c-0.3-0.6-0.7-1.2-1-1.8c-2.7,17.9,0.1,35.7,8.3,51.8c0.1-0.6,0.2-1.2,0.2-1.8
						c-21.3,16.8-42.6,33.5-63.9,50.3c-3.1,2.4-6.1,4.8-9.2,7.2c0.7,0,1.4,0,2.1,0c-21.2-20.2-49-31.6-78.3-31.8
						C272.1,538,272.1,541,274.1,541z"/>
				</g>
			</g>
			<g id="XMLID_140_">
				<path id="XMLID_146_" class="st0" d="M887.2,391.1c-20.3,36.3-59.1,61-103.6,61c-15.9,0-31-3.2-44.9-8.8l-63.3,99.5
					c13.6,14.5,22,34,22,55.4c0,13.7-3.4,26.6-9.4,37.9c16.7-4.5,33.6-9.5,50.8-15.2c-19.6,76.8-29.1,81.9-71.8,160.2
					C783.9,687.5,862.9,626.2,966.9,498C943.8,457.7,916.9,422.1,887.2,391.1z"/>
				<g id="XMLID_114_">
					<path id="XMLID_11_" class="st0" d="M885.9,390.4c-13.3,23.4-34.2,42.1-59.2,52c-28.1,11.1-59.6,10.7-87.5-0.6
						c-0.6-0.3-1.4,0.2-1.7,0.7c-18.5,29-36.9,58.1-55.4,87.1c-2.6,4.1-5.2,8.2-7.9,12.4c-0.4,0.6-0.2,1.3,0.2,1.8
						c22.9,24.9,27.9,61.4,12.3,91.6c-0.6,1.1,0.4,2.6,1.7,2.2c17.1-4.6,34-9.6,50.8-15.2c-0.6-0.6-1.2-1.2-1.8-1.8
						c-5.7,22.4-11.9,44.8-21.1,66.1c-7.6,17.7-17.3,34.4-26.8,51.1c-8,14.1-16,28.3-23.8,42.6c-0.9,1.6,1.1,2.8,2.4,1.8
						c41.5-33.2,83.2-66.2,123.4-100.9c38.8-33.4,75.9-68.7,110.7-106.2c22.8-24.6,44.6-50,65.8-76c0.4-0.5,0.6-1.2,0.2-1.8
						c-22.3-38.8-49.1-74.8-79.9-107.2c-1.3-1.4-3.5,0.7-2.1,2.1c30.7,32.2,57.3,68.1,79.5,106.6c0.1-0.6,0.2-1.2,0.2-1.8
						c-35.7,44-73.5,86.2-114.2,125.6c-36.1,34.9-74.3,67.6-113.3,99.3c-24,19.6-48.2,38.9-72.4,58.2c0.8,0.6,1.6,1.2,2.4,1.8
						c21.1-38.7,45.8-76,59.8-118.1c4.6-14,8.5-28.2,12.2-42.4c0.3-1.1-0.7-2.2-1.8-1.8c-16.8,5.5-33.7,10.6-50.8,15.2
						c0.6,0.7,1.1,1.5,1.7,2.2c16.2-31.4,11.1-69.2-12.8-95.2c0.1,0.6,0.2,1.2,0.2,1.8c18.5-29,36.9-58.1,55.4-87.1
						c2.6-4.1,5.2-8.2,7.9-12.4c-0.6,0.2-1.1,0.5-1.7,0.7c28.9,11.6,61.6,11.9,90.5,0c25.3-10.3,46.3-29.2,59.7-52.9
						C889.5,390.2,886.9,388.7,885.9,390.4z"/>
				</g>
			</g>
			<g id="XMLID_142_">
				<path id="XMLID_108_" class="st0" d="M543.3,633.7L385.1,656c0,0.5-0.1,0.9-0.1,1.4c61.6,6.3,119.5,7.3,177.6,1.6
					C554.6,652,548,643.4,543.3,633.7z"/>
				<g id="XMLID_103_">
					<path id="XMLID_9_" class="st0" d="M542.9,632.3c-46.2,6.5-92.3,13-138.5,19.5c-6.6,0.9-13.2,1.9-19.7,2.8
						c-0.7,0.1-1.1,0.8-1.1,1.4c0,0.5-0.1,0.9-0.1,1.4c-0.1,0.9,0.7,1.4,1.5,1.5c59,6,118.5,7.3,177.6,1.6c1.2-0.1,2.1-1.6,1.1-2.6
						c-7.9-7.1-14.3-15.5-19.1-25c-0.9-1.7-3.5-0.2-2.6,1.5c4.9,9.7,11.4,18.3,19.5,25.6c0.4-0.9,0.7-1.7,1.1-2.6
						c-59.1,5.7-118.6,4.3-177.6-1.6c0.5,0.5,1,1,1.5,1.5c0-0.5,0.1-0.9,0.1-1.4c-0.4,0.5-0.7,1-1.1,1.4
						c46.2-6.5,92.3-13,138.5-19.5c6.6-0.9,13.2-1.9,19.7-2.8C545.6,634.9,544.8,632,542.9,632.3z"/>
				</g>
			</g>
			<g id="XMLID_143_">
				<path id="XMLID_102_" class="st0" d="M199.8,323h465.6c2-23,10.9-44.9,24.6-62.5c-142.1-54.9-303.6-53.1-443.2-9.6
					c-21.7,6.8-43.8,15.4-64.8,26.1C191.7,290.2,198,306,199.8,323z"/>
				<g id="XMLID_97_">
					<path id="XMLID_8_" class="st0" d="M199.8,324.7c15.4,0,30.9,0,46.3,0c37.1,0,74.2,0,111.3,0c44.9,0,89.7,0,134.6,0
						c38.8,0,77.5,0,116.3,0c12.7,0,25.5,0,38.2,0c5.9,0,12.3,0.8,18.2,0c0.3,0,0.5,0,0.8,0c0.9,0,1.4-0.7,1.5-1.5
						c2.1-22.6,10.6-43.8,24.4-61.8c0.6-0.8-0.1-1.9-0.9-2.2c-63.6-24.4-131-37.8-199-41c-67.1-3.2-134.8,3.3-200.1,19
						c-37.9,9.1-75.2,21-110,38.6c-0.7,0.3-1,1.4-0.5,2.1c9.6,13.5,15.6,28.9,17.5,45.3c0.2,1.9,3.2,1.9,3,0c-2-17-8-32.9-17.9-46.8
						c-0.2,0.7-0.4,1.4-0.5,2.1c31.3-15.8,64.5-26.9,98.4-35.6c32.3-8.3,65.1-14.3,98.2-18c66.7-7.5,134.6-5.6,200.7,6.5
						c37.4,6.9,74.1,17.1,109.6,30.8c-0.3-0.7-0.6-1.5-0.9-2.2c-14.2,18.4-22.6,40.2-24.8,63.3c0.5-0.5,1-1,1.5-1.5
						c-15.4,0-30.9,0-46.3,0c-37.1,0-74.2,0-111.3,0c-44.9,0-89.7,0-134.6,0c-38.8,0-77.5,0-116.3,0c-12.7,0-25.5,0-38.2,0
						c-5.8,0-12.4-0.9-18.2,0c-0.3,0-0.5,0-0.8,0C197.9,321.7,197.9,324.7,199.8,324.7z"/>
				</g>
			</g>
			<g id="XMLID_144_">
				<path id="XMLID_153_" class="st0" d="M206.7,562.3l-72.9-137.4c-9.3,3-19.3,4.7-29.6,4.7c-13.6,0-26.5-2.8-38.2-7.9
					c-4.3,59.8,32.8,118.1,82.6,152.5c9.8,6.7,19.8,13.3,30.1,19.5C186,581.6,195.5,570.9,206.7,562.3z"/>
				<g id="XMLID_109_">
					<path id="XMLID_4_" class="st0" d="M208,561.6c-21.3-40.1-42.5-80.3-63.8-120.4c-3-5.7-6-11.4-9-17c-0.3-0.6-1.1-0.9-1.7-0.7
						c-22,6.9-45.4,5.9-66.7-3.1c-1.1-0.5-2.2,0.1-2.3,1.3c-3.7,55.8,27.2,108.7,69.3,143.3c13.7,11.3,28.9,20.8,44.1,30.1
						c0.7,0.4,1.6,0.1,2.1-0.5c7.3-12,16.7-22.4,27.8-31.1c1.5-1.2-0.6-3.3-2.1-2.1c-11.3,8.8-20.8,19.4-28.3,31.7
						c0.7-0.2,1.4-0.4,2.1-0.5c-25.1-15.3-49.3-31.8-68.7-54.2c-17.8-20.4-31.6-44.6-38.6-70.9c-4-14.9-5.5-30.3-4.5-45.7
						c-0.8,0.4-1.5,0.9-2.3,1.3c22,9.3,46.2,10.6,69,3.4c-0.6-0.2-1.1-0.5-1.7-0.7c21.3,40.1,42.5,80.3,63.8,120.4
						c3,5.7,6,11.4,9,17C206.3,564.8,208.9,563.3,208,561.6z"/>
				</g>
			</g>
		</g>
		<g id="XMLID_2_">
			<circle id="XMLID_62_" class="st1" cx="104.2" cy="333.4" r="71.2"/>
			<circle id="XMLID_60_" class="st1" cx="786.1" cy="330.9" r="93.7"/>
			<circle id="XMLID_55_" class="st1" cx="274.1" cy="650.7" r="86.2"/>
			<circle id="XMLID_51_" class="st1" cx="496.4" cy="475.8" r="56.2"/>
			<circle id="XMLID_44_" class="st1" cx="613.8" cy="598.2" r="56.2"/>
		</g>
	</g>
</g>
</svg>
